<svg xmlns="http://www.w3.org/2000/svg" width="231" height="231" viewBox="0 0 231 231">
  <g id="Group_75" data-name="Group 75" transform="translate(-131 -217)">
    <circle id="Ellipse_66" data-name="Ellipse 66" cx="115.5" cy="115.5" r="115.5" transform="translate(131 217)" fill="#fff"/>
    <path id="Icon_awesome-user-circle" data-name="Icon awesome-user-circle" d="M103.9.563a103.9,103.9,0,1,0,103.9,103.9A103.878,103.878,0,0,0,103.9.563Zm0,40.218A36.866,36.866,0,1,1,67.03,77.647,36.867,36.867,0,0,1,103.9,40.78Zm0,144.114a80.28,80.28,0,0,1-61.374-28.572,46.709,46.709,0,0,1,41.265-25.052,10.251,10.251,0,0,1,2.974.461,55.467,55.467,0,0,0,17.135,2.891,55.257,55.257,0,0,0,17.135-2.891,10.251,10.251,0,0,1,2.974-.461,46.709,46.709,0,0,1,41.265,25.052A80.28,80.28,0,0,1,103.9,184.895Z" transform="translate(142.951 228.388)" fill="#b9b9b9"/>
  </g>
</svg>
