<svg xmlns="http://www.w3.org/2000/svg" width="74.5" height="74.5" viewBox="0 0 74.5 74.5">
  <path id="Icon_awesome-user-circle" data-name="Icon awesome-user-circle" d="M37.25.562A37.25,37.25,0,1,0,74.5,37.812,37.244,37.244,0,0,0,37.25.562Zm0,14.419A13.218,13.218,0,1,1,24.032,28.2,13.218,13.218,0,0,1,37.25,14.982Zm0,51.669a28.783,28.783,0,0,1-22-10.244A16.747,16.747,0,0,1,30.04,47.425a3.675,3.675,0,0,1,1.066.165,19.887,19.887,0,0,0,6.143,1.036,19.811,19.811,0,0,0,6.143-1.036,3.675,3.675,0,0,1,1.066-.165,16.747,16.747,0,0,1,14.795,8.982A28.783,28.783,0,0,1,37.25,66.651Z" transform="translate(0 -0.563)" fill="#e53471"/>
</svg>
